<svg width="24" height="24" xmlns="http://www.w3.org/2000/svg" fill="none">
 <desc>Calendar Date Streamline Icon: https://streamlinehq.com</desc>

 <g>
  <title>Layer 1</title>
  <path id="svg_1" d="m1.4585,7.87496l0,-3.66667c0,-0.24312 0.09657,-0.47627 0.26848,-0.64818c0.17191,-0.1719 0.40506,-0.26848 0.64818,-0.26848l19.25004,0c0.2431,0 0.4763,0.09658 0.6481,0.26848c0.1719,0.17191 0.2685,0.40506 0.2685,0.64818l0,3.66667l-21.0833,0z" fill="#ff808c"/>
  <path id="svg_2" d="m1.4585,5.58329l0,-1.375c0,-0.24312 0.09657,-0.47627 0.26848,-0.64818c0.17191,-0.1719 0.40506,-0.26848 0.64818,-0.26848l19.25004,0c0.2431,0 0.4763,0.09658 0.6481,0.26848c0.1719,0.17191 0.2685,0.40506 0.2685,0.64818l0,1.375l-21.0833,0z" fill="#ffbfc5"/>
  <path id="svg_3" d="m1.4585,7.73053l21.0833,0l0,13.75c0,0.2431 -0.0966,0.4763 -0.2685,0.6482c-0.1718,0.1718 -0.405,0.2685 -0.6481,0.2685l-19.25004,0c-0.24312,0 -0.47627,-0.0967 -0.64818,-0.2685c-0.17191,-0.1719 -0.26848,-0.4051 -0.26848,-0.6482l0,-13.75z" fill="#ffffff"/>
  <path id="svg_4" d="m21.33625,3.14813l-19.25004,0c-0.50626,0 -0.91666,0.4104 -0.91666,0.91667l0,17.41663c0,0.5063 0.4104,0.9167 0.91666,0.9167l19.25004,0c0.5062,0 0.9166,-0.4104 0.9166,-0.9167l0,-17.41663c0,-0.50627 -0.4104,-0.91667 -0.9166,-0.91667z" stroke-linejoin="round" stroke-linecap="round" stroke="#191919"/>
  <path id="svg_5" d="m6.0415,1.45923l0,4.58333" stroke-linejoin="round" stroke-linecap="round" stroke="#191919"/>
  <path id="svg_6" d="m17.9585,1.45923l0,4.58333" stroke-linejoin="round" stroke-linecap="round" stroke="#191919"/>
  <path id="svg_7" d="m1.4585,7.87598l21.0833,0" stroke-linejoin="round" stroke-linecap="round" stroke="#191919"/>
  <path id="svg_8" d="m4.50247,18.27313l4.5833,0" stroke-linejoin="round" stroke-linecap="round" stroke="#191919"/>
  <path id="svg_9" d="m6.9386,18.27223l0,-6.875c0.00005,-0.0863 -0.02428,-0.1709 -0.07019,-0.244c-0.0459,-0.0731 -0.11152,-0.1317 -0.1893,-0.1692c-0.07777,-0.0374 -0.16454,-0.0522 -0.25031,-0.0425c-0.08578,0.0097 -0.16707,0.0434 -0.23453,0.0973l-1.54733,1.2384" stroke-linejoin="round" stroke-linecap="round" stroke="#191919"/>
  <path id="svg_10" d="m16.50855,18.4166l2.6868,-6.6504c0.0425,-0.069 0.0647,-0.1487 0.0639,-0.2298c-0.0009,-0.0811 -0.0246,-0.1603 -0.0685,-0.2285c-0.0463,-0.0701 -0.1095,-0.1275 -0.1839,-0.1667c-0.0743,-0.0393 -0.1574,-0.0592 -0.2414,-0.0579l-3.6319,0c-0.1215,0 -0.2381,0.0483 -0.3241,0.1343c-0.0859,0.0859 -0.1342,0.2025 -0.1342,0.324l0,0.9167" stroke-linejoin="round" stroke-linecap="round" stroke="#191919"/>
  <line stroke="#191919" fill="none" stroke-linecap="round" stroke-linejoin="round" id="svg_11" y2="14.81721" x2="12.89545" y1="14.81721" x1="10.55527"/>
 </g>
</svg>